<?xml version="1.0" standalone="no"?><!DOCTYPE svg PUBLIC "-//W3C//DTD SVG 1.1//EN" "http://www.w3.org/Graphics/SVG/1.1/DTD/svg11.dtd"><svg t="1528351084890" class="icon" style="" viewBox="0 0 1024 1024" version="1.1" xmlns="http://www.w3.org/2000/svg" p-id="1007" xmlns:xlink="http://www.w3.org/1999/xlink" width="200" height="200"><defs><style type="text/css"></style></defs><path d="M133.7856 727.5008a25.6 25.6 0 0 1 44.4928-25.3952l1.0752 1.8944a25.6 25.6 0 1 1-44.3392 25.6l-1.2288-2.0992z m64.8704 86.528a25.6 25.6 0 1 1 36.864-35.5328 384 384 0 1 0-96.256-173.824 25.6 25.6 0 1 1-49.7152 12.288A435.2 435.2 0 1 1 198.656 814.08zM512 652.4928l-151.1936 79.4624a5.12 5.12 0 0 1-7.424-5.376l28.8768-168.3456-122.368-119.296a5.12 5.12 0 0 1 2.8672-8.704l169.0624-24.576L507.392 252.5184a5.12 5.12 0 0 1 9.216 0l75.5712 153.1392 169.0624 24.576a5.12 5.12 0 0 1 2.816 8.704l-122.3168 119.296 28.8768 168.3456a5.12 5.12 0 0 1-7.424 5.376L512 652.4928z" fill="#ffffff" p-id="1008"></path></svg>