<?xml version="1.0" standalone="no"?><!DOCTYPE svg PUBLIC "-//W3C//DTD SVG 1.1//EN" "http://www.w3.org/Graphics/SVG/1.1/DTD/svg11.dtd"><svg t="1528350508580" class="icon" style="" viewBox="0 0 1024 1024" version="1.1" xmlns="http://www.w3.org/2000/svg" p-id="5590" xmlns:xlink="http://www.w3.org/1999/xlink" width="200" height="200"><defs><style type="text/css"></style></defs><path d="M730.88 480l110.805333 64-110.848 64 110.848 64L490.666667 874.666667l-351.018667-202.666667 110.848-64-110.848-64 110.848-64-110.848-64L490.666667 213.333333l351.018666 202.666667-110.848 64z m-437.76 24.618667l-68.138667 39.381333 265.685334 153.386667 265.685333-153.386667-68.181333-39.381333L490.666667 618.666667l-197.546667-114.048z m395.093333 128L490.666667 746.666667l-197.546667-114.048-68.138667 39.381333 265.685334 153.386667 265.685333-153.386667-68.181333-39.381333zM490.666667 262.613333L224.981333 416l265.685334 153.386667 265.685333-153.386667L490.666667 262.613333z" fill="#ffffff" p-id="5591"></path></svg>